<svg width="219" height="291" viewBox="0 0 219 291" fill="none" xmlns="http://www.w3.org/2000/svg">
<path d="M109 38H148C169.539 38 187 55.4609 187 77V77C187 98.5391 169.539 116 148 116H109V38Z" fill="#F24822"/>
<path d="M109 116H70C48.4609 116 31 98.5391 31 77V77C31 55.4609 48.4609 38 70 38H109L109 116Z" fill="#F24822"/>
<path d="M109 194H70C48.4609 194 31 176.539 31 155V155C31 133.461 48.4609 116 70 116H109L109 194Z" fill="#6647FF"/>
<path d="M109 233C109 254.539 91.5391 272 70 272V272C48.4609 272 31 254.539 31 233V233C31 211.461 48.4609 194 70 194H109L109 233Z" fill="#0DB56E"/>
<rect x="109" y="116" width="78" height="78" rx="39" fill="#18A0FB"/>
</svg>
