<?xml version="1.0" standalone="no"?>
<!DOCTYPE svg PUBLIC "-//W3C//DTD SVG 20010904//EN"
 "http://www.w3.org/TR/2001/REC-SVG-20010904/DTD/svg10.dtd">
<svg version="1.0" xmlns="http://www.w3.org/2000/svg"
 width="500.000000pt" height="500.000000pt" viewBox="0 0 500.000000 500.000000"
 preserveAspectRatio="xMidYMid meet">

<g transform="translate(0.000000,500.000000) scale(0.100000,-0.100000)"
fill="#000000" stroke="none">
<path d="M2184 4929 c-312 -30 -680 -151 -974 -320 -53 -30 -234 -155 -307
-211 -36 -28 -37 -28 -194 -28 -176 0 -185 -4 -124 -53 38 -30 59 -64 70 -114
6 -30 1 -39 -67 -116 -82 -92 -201 -260 -260 -364 -110 -194 -209 -439 -252
-624 -14 -63 -31 -130 -36 -149 -45 -161 -51 -656 -10 -845 56 -258 72 -314
128 -465 88 -233 206 -442 360 -635 197 -248 408 -436 660 -590 290 -176 525
-259 957 -337 77 -14 531 -14 610 0 312 56 476 103 692 198 201 89 437 242
607 393 l69 61 233 0 c225 0 234 1 234 19 0 11 -13 28 -30 38 -47 28 -70 88
-81 211 -5 59 -7 117 -4 129 3 13 35 71 71 129 148 242 234 476 314 849 40
190 35 677 -10 835 -5 19 -21 87 -35 151 -61 282 -200 574 -418 881 -90 127
-347 390 -436 446 -14 9 -44 30 -66 48 -136 107 -359 230 -564 311 -116 46
-323 104 -456 129 -177 32 -475 42 -681 23z m556 -159 c105 -13 238 -38 265
-50 11 -5 62 -20 113 -34 51 -15 114 -36 140 -47 25 -12 62 -27 83 -34 95 -34
330 -168 454 -260 289 -214 529 -500 689 -820 214 -428 285 -867 220 -1360 -8
-60 -18 -126 -23 -145 -41 -157 -73 -266 -86 -293 -8 -18 -21 -50 -28 -72 -25
-69 -89 -205 -98 -205 -12 0 -11 787 1 930 5 63 16 138 25 165 22 77 71 143
122 168 27 13 43 28 43 39 0 17 -14 18 -207 18 l-208 -1 -295 -515 c-162 -284
-316 -552 -341 -596 l-46 -80 -359 596 -359 596 -222 0 c-190 0 -223 -2 -223
-15 0 -8 18 -24 39 -34 84 -43 130 -126 151 -271 5 -36 10 -382 10 -780 0
-615 -2 -724 -15 -775 -16 -61 -43 -100 -77 -111 -11 -3 -18 -15 -18 -30 l0
-24 192 2 c171 3 193 5 196 20 2 12 -11 23 -45 38 -61 27 -89 53 -120 114 -54
106 -55 124 -60 879 -3 383 -1 697 4 697 4 -1 170 -268 368 -595 l360 -594 35
-1 36 0 349 613 350 612 3 -730 c2 -401 0 -749 -3 -771 -5 -37 -19 -54 -113
-146 -222 -216 -488 -390 -743 -487 -46 -18 -98 -39 -116 -47 -17 -8 -92 -28
-165 -45 -73 -16 -146 -34 -163 -39 -147 -45 -691 -45 -840 1 -16 5 -88 22
-158 39 -70 16 -147 38 -170 49 -23 10 -60 24 -82 31 -48 15 -238 106 -315
151 -90 52 -240 157 -320 225 -84 70 -230 217 -307 309 -117 140 -272 402
-337 570 -15 39 -34 84 -42 102 -13 28 -57 181 -85 298 -19 74 -38 240 -45
380 -9 195 18 501 55 618 6 18 25 84 42 147 17 63 35 120 39 125 4 6 17 37 29
70 50 135 175 359 280 499 l66 88 3 -88 c2 -49 1 -370 -1 -714 -2 -477 -6
-635 -16 -665 -8 -23 -31 -57 -57 -81 -24 -23 -44 -46 -44 -53 0 -8 196 -11
738 -11 l739 0 9 210 c8 195 8 210 -8 210 -11 0 -32 -28 -60 -82 -75 -144
-181 -230 -339 -275 -54 -15 -104 -18 -316 -18 -240 0 -253 1 -280 21 -53 40
-53 34 -53 538 l0 468 243 -5 c252 -5 327 -16 405 -56 48 -25 97 -77 117 -123
10 -26 22 -38 35 -38 19 0 20 7 20 240 0 233 -1 240 -20 240 -13 0 -25 -12
-35 -37 -9 -21 -30 -53 -48 -71 -76 -80 -174 -102 -485 -109 l-232 -6 0 411 0
410 43 32 42 32 215 -5 c227 -6 291 -15 391 -60 98 -43 190 -139 247 -254 17
-35 32 -53 44 -53 21 0 21 -10 3 210 -8 96 -15 181 -15 188 0 9 -89 12 -412
12 -459 0 -438 -4 -323 66 181 112 366 198 526 244 53 16 116 35 140 43 52 18
225 46 353 57 110 10 389 5 506 -10z"/>
</g>
</svg>
